<?xml version="1.0" encoding="utf-8"?>
<!-- Generator: Adobe Illustrator 23.0.0, SVG Export Plug-In . SVG Version: 6.00 Build 0)  -->
<svg version="1.1" id="Livello_1" xmlns="http://www.w3.org/2000/svg" xmlns:xlink="http://www.w3.org/1999/xlink" x="0px" y="0px"
	 viewBox="0 0 841.9 595.3" style="enable-background:new 0 0 841.9 595.3;" xml:space="preserve">
<style type="text/css">
	.st0{enable-background:new    ;}
	.st1{fill:#FFFFFF;}
	.st2{fill:none;stroke:#FFFFFF;stroke-width:15;stroke-miterlimit:10;}
</style>
<g class="st0">
	<path class="st1" d="M302.6,294.8c-1.2,3.3-2,5.7-2.4,7.3c-0.5,1.6-0.7,2.8-0.7,3.6c0,1.1,0.4,1.8,1.1,2.3c0.8,0.5,1.9,0.7,3.5,0.7
		c4,0,8.1-1.2,12.6-3.5c4.4-2.3,10.6-7,18.6-14c2.7-2.3,6.2-5.4,10.5-9.4c9.1-8.3,14.7-12.5,16.8-12.5c0.1,0,0.3,0,0.7,0.1
		c0.4,0.1,0.6,0.1,0.8,0.2c-3.3,1.8-8.4,6-15.2,12.7c-3.4,3.4-6.1,6-8,7.8c-9.8,8.9-17.3,14.8-22.3,17.5c-5.1,2.8-10,4.1-14.9,4.1
		c-5.2,0-9.3-1.5-12.4-4.4c-3.1-2.9-4.7-6.8-4.7-11.5c0-4,1.2-7.8,3.5-11.6c2.4-3.8,5.9-7.5,10.7-11.2c4.1-3.1,8.2-5.5,12.3-7.3
		s7.9-2.6,11.2-2.6c3.1,0,5.5,0.9,7.2,2.6c1.8,1.7,2.6,4.1,2.6,7.1c0,4.8-2.9,9.3-8.8,13.4C319.5,290.4,311.9,293.2,302.6,294.8z
		 M303.5,292.3c6.3-1,11.9-3.7,16.8-8.3c4.9-4.6,7.4-9,7.4-13.2c0-1.2-0.3-2.2-1-3.1c-0.7-0.9-1.5-1.3-2.4-1.3
		c-2.6,0-6,2.5-10.2,7.5C309.9,278.9,306.3,285.1,303.5,292.3z"/>
	<path class="st1" d="M361.5,271.3c-3.2,2.2-6.4,5.1-9.8,8.6c-3.4,3.6-5.4,5.3-6.1,5.3c-0.4,0-0.6-0.1-0.9-0.3s-0.3-0.5-0.3-0.9
		c0-0.6,1.2-2,3.5-4.1c1.1-1,1.9-1.7,2.6-2.3l4.6-4.4c0.6-0.5,1.3-1.2,2.3-2.1c3.7-3.5,5.9-5.8,6.7-6.9c0.3-0.6,0.8-1.3,1.4-2.3
		c1.2-2.1,2.2-3.1,3.2-3.1c0.5,0,0.9,0.2,1.2,0.5c0.4,0.4,0.6,0.7,0.6,1.1c0,0.4-0.7,1.3-2,2.8c-1.3,1.5-2,2.7-2,3.8
		c0,0.9,1.4,3.5,4.2,7.7c2.8,4.3,4.2,8.8,4.2,13.7c0,2.4-0.4,4.5-1.2,6.4c-0.8,1.9-2.2,4-4.2,6.2c6.3-5,13.7-11.5,22.3-19.7
		c8.5-8.1,13.9-12.2,16.1-12.2c1.1,0,1.9-0.2,2.5-0.6c-0.1,0-0.2,0.1-0.3,0.2c-0.1,0.2-0.3,0.4-0.5,0.7c-4,2.2-9.5,7-16.5,14.3
		c-2.6,2.7-4.5,4.7-5.9,6.1c-9.3,9.2-16.3,15.1-21,17.9c-4.8,2.7-9.6,4.1-14.5,4.1c-3.9,0-7.1-1-9.7-3s-3.9-4.4-3.9-7.3
		c0-1.9,0.6-3.5,1.9-4.8c1.3-1.3,2.8-2,4.7-2c1.7,0,3,0.5,3.9,1.5c1,1,1.5,2.4,1.5,4.2c0,1.3-0.5,2.5-1.5,3.6c-1,1.1-2,1.6-3.2,1.6
		c-0.5,0-0.8,0-1.2-0.1c-0.3,0-0.6-0.1-0.9-0.2c0.8,0.9,1.5,1.5,2.4,1.9c0.8,0.4,1.7,0.6,2.7,0.6c4.1,0,7.3-3,9.8-8.9
		c2.5-6,3.7-13.9,3.7-23.8V271.3z"/>
	<path class="st1" d="M402.6,274.4c-1.5,1.4-3.3,3.2-5.5,5.5c-3.5,3.6-5.6,5.4-6.4,5.4c-0.4,0-0.6-0.1-0.9-0.3s-0.3-0.5-0.3-0.9
		c0-0.6,1.1-1.9,3.2-3.8c1.6-1.4,2.9-2.5,3.8-3.5l4.4-4.3c4.3-4.2,8.8-10.1,13.4-17.8c0.5-0.8,0.9-1.4,1.1-1.7l17.4-28.8l15.5-0.6
		l-11.5,19.7h10.8l-0.9,3.5h-12.5L416,278c-4,6.8-7.2,12.8-9.6,18.2c-2.4,5.3-3.6,8.8-3.6,10.5c0,0.4,0.2,0.7,0.5,1
		c0.4,0.3,0.8,0.4,1.4,0.4c1.3,0,3.5-1.3,6.8-3.9c3.3-2.6,8.2-7.2,14.8-13.6l1.7-1.8c13.3-13,21.2-19.5,23.6-19.5
		c0.2,0,0.6,0.1,1.2,0.2c0.3,0.1,0.4,0.1,0.5,0.1c-3.6,1.9-9.6,7.2-18.1,15.9c-3.4,3.5-6,6.1-7.9,8l-1.2,1.1
		c-11.3,11.3-19.6,17-24.8,17c-3,0-5.3-0.9-6.9-2.8c-1.7-1.9-2.5-4.4-2.5-7.7c0-3.8,2.6-10.8,7.9-21.2
		C401,277.5,402,275.7,402.6,274.4z"/>
	<path class="st1" d="M532.2,271.1c-4.7,0.4-9.3,1.3-14.1,2.9c-1.2,0.4-1.9,0.6-2.2,0.6c-0.4,0-0.7-0.1-0.9-0.3
		c-0.2-0.1-0.3-0.3-0.4-0.5c0-0.5,0.3-0.9,0.9-1.4c0.6-0.5,1.2-0.7,1.7-0.7c0.2,0,0.6-0.1,1.4-0.4c4.7-1.7,9.7-2.8,15-3.3
		c5.6-11.8,11.9-21.7,19-29.5c7.1-7.9,14.7-13.6,22.9-17.1c-2.8-1.6-5.9-2.7-9.4-3.5c-3.5-0.8-7.3-1.1-11.7-1.1
		c-7.4,0-14.9,1.1-22.7,3.3c-7.7,2.2-14.7,5.3-20.9,9.2c-6.2,3.8-10.9,7.9-14.2,12.3c-3.3,4.4-5,8.7-5,13c0,3.2,0.9,5.7,2.8,7.6
		c1.9,1.8,4.4,2.7,7.7,2.7c5.1,0,10.6-2.5,16.5-7.4c5.9-5,10.5-11.2,13.9-18.7c1.1-2.4,1.9-4.9,2.5-7.8c0.6-2.8,1.2-4.2,1.6-4.2
		c0.7,0,1.1,0.4,1.4,1.2c0.3,0.8,0.4,2.8,0.4,6.2c0,10.3-3,18.7-8.9,25.1c-5.9,6.4-13.5,9.7-22.8,9.7c-5.3,0-9.5-1.3-12.6-3.8
		c-3.1-2.5-4.7-5.9-4.7-10.2c0-4,1.3-8.1,3.9-12.3s6.2-8.1,10.8-11.6c7-5.3,14.8-9.4,23.5-12.3c8.7-2.9,17.7-4.3,27-4.3
		c4.7,0,8.9,0.4,12.7,1.3c3.7,0.9,7.5,2.3,11.2,4.2c2.8-1.1,5.4-1.9,7.8-2.5c2.4-0.6,4.3-0.9,5.7-0.9c0.3,0,0.7,0.1,0.9,0.3
		c0.3,0.2,0.4,0.3,0.4,0.5c0,0.5-1.4,1-4.1,1.5c-2.7,0.5-5.5,1.3-8.2,2.5c3.7,2,6.5,4.5,8.5,7.7c2,3.2,3,6.7,3,10.5
		c0,7.2-3.9,13.6-11.6,19.1c-7.7,5.5-17.7,8.8-29.8,10c-4.6,13.4-11.7,23.9-21.5,31.6c-9.8,7.7-20.8,11.5-33.1,11.5
		c-7.1,0-12.7-1.5-17-4.6c-4.3-3.1-6.4-7.1-6.4-12.1c0-3.9,1.3-7.2,3.8-9.8c2.5-2.6,5.6-3.9,9.2-3.9c2.6,0,4.6,0.7,6.1,2.1
		c1.5,1.4,2.3,3.3,2.3,5.7c0,2-0.6,3.5-1.8,4.6c-1.2,1.1-3.2,1.9-6.1,2.4l-0.2,0.1c-4,0.9-5.9,2.3-5.9,4.3c0,2.1,1.5,4.1,4.5,6
		c3,1.9,6.5,2.8,10.4,2.8c7.2,0,13.8-3,19.7-9.1C520.7,294.1,526.5,284.5,532.2,271.1z M552.2,266c8-0.9,14.8-4.6,20.4-11.2
		c5.7-6.5,8.5-13.8,8.5-21.8c0-2.4-0.3-4.3-0.9-6c-0.6-1.6-1.6-3.1-2.9-4.3c-4.4,2-8.5,6.2-12.4,12.7
		C561.1,242.1,556.8,252.2,552.2,266z"/>
	<path class="st1" d="M587.6,274.5l-4.6,4.4c-0.7,0.7-1.6,1.5-2.7,2.6c-2.2,2.2-3.5,3.2-3.9,3.2s-0.8-0.1-1.1-0.2
		c-0.3-0.1-0.4-0.3-0.4-0.6c0-0.6,1-1.7,2.9-3.4c1.4-1.3,2.5-2.3,3.3-3.1l5-5c0.2-0.2,0.4-0.4,0.8-0.8c2.9-2.9,5.1-5.3,6.8-7.4
		l16-1.1l-15.6,28.5c-2.4,4.3-4.1,7.7-5.4,10.3c-1.2,2.6-1.8,4.2-1.8,4.8c0,0.4,0.1,0.7,0.4,1c0.3,0.3,0.6,0.4,1,0.4
		c1.4,0,3.9-1.4,7.4-4.2c3.5-2.8,8-7,13.3-12.4c9.2-9.3,15.5-15.4,18.9-18.2c3.4-2.8,5.8-4.2,7.3-4.2c0.1,0,0.5,0.1,1.1,0.2
		c0.3,0.1,0.5,0.1,0.6,0.1c-4,2.1-10.4,7.8-19.2,17.1c-2.9,3.1-5.2,5.4-6.8,7.1c-6.8,7-12.1,11.7-15.9,14.2
		c-3.8,2.5-7.3,3.8-10.6,3.8c-2.9,0-5.2-0.9-6.8-2.6c-1.6-1.7-2.4-4.1-2.4-7.3c0-4.1,3.3-11.8,9.8-23.1
		C586.2,276.9,587,275.5,587.6,274.5z M601.6,247.7c0-2,0.9-3.8,2.6-5.4c1.7-1.6,3.7-2.4,5.8-2.4c1.9,0,3.3,0.6,4.5,1.7
		c1.1,1.1,1.7,2.6,1.7,4.4c0,2.2-0.8,4-2.4,5.6c-1.6,1.6-3.5,2.4-5.7,2.4c-2.1,0-3.6-0.5-4.8-1.6
		C602.2,251.1,601.6,249.6,601.6,247.7z"/>
	<path class="st1" d="M645.9,310.1c0-0.3,0.1-0.7,0.1-1c0-0.3,0-0.7,0-1c0-1.6-0.4-2.9-1.2-4.1c-0.8-1.2-2-2.3-3.7-3.4
		c-2.1,2.2-4.4,3.9-6.9,5c-2.6,1.2-5.2,1.7-8,1.7c-1.5,0-2.7-0.3-3.5-0.9c-0.8-0.6-1.2-1.4-1.2-2.5c0-1.8,1.3-3.3,3.8-4.5
		c2.5-1.2,5.8-1.8,9.9-1.8c0.3,0,1.1,0.1,2.3,0.2c1.3,0.2,2.3,0.3,3,0.4c1.2-1.3,2.4-2.7,3.6-4.3c1.3-1.6,3.1-3.9,5.5-7.1
		c-0.1,0-0.2,0-0.4,0c-2,0.2-3.5,0.3-4.4,0.3c-3.4,0-6.1-0.7-8-2.1c-2-1.4-2.9-3.3-2.9-5.8c0-1.6,0.7-3.9,2.2-6.9
		c0.6-1.2,1-2.1,1.2-2.7c-2.5,1.6-5.2,3.5-7.9,5.8s-4.5,3.5-5.3,3.5c-0.2,0-0.4-0.1-0.5-0.2c-0.2-0.1-0.2-0.3-0.2-0.4
		c0-0.6,0.6-1.4,1.7-2.6c1.1-1.2,2.9-2.7,5.4-4.7c4-3.2,6.8-5.2,8.4-6.1c1.6-0.9,3.1-1.3,4.4-1.3c1.7,0,3.1,0.6,4.1,1.8
		c1.1,1.2,1.6,2.7,1.6,4.5c0,2.7-1.2,5.3-3.6,7.9c-2.4,2.6-3.6,4-3.6,4.4c0,0.6,0.3,1.1,0.9,1.4c0.6,0.3,1.4,0.5,2.5,0.5
		c1,0,2-0.1,3.1-0.2c1.1-0.1,2.3-0.3,3.4-0.6c1.4-1.9,3.1-4.6,5.2-8c5.1-8.2,9.1-12.3,12-12.3c1,0,1.7,0.4,2.3,1.1
		c0.6,0.7,0.8,1.7,0.8,2.9c0,2.3-3.5,6.4-10.4,12.2c-6.9,5.8-12.7,12.3-17.4,19.4c2.3,1.1,4.1,2.1,5.4,3.1c1.3,1,2.4,2.2,3.3,3.6
		c8.2-6.3,17.2-13.9,27-22.9s15.7-13.4,17.6-13.4c0.2,0,0.5,0.1,1.1,0.1c0.3,0.1,0.5,0.2,0.7,0.2c-2.6,1.3-8.7,6.4-18.3,15.4
		c-9.6,9-18.4,16.8-26.5,23.2c0.5,0.8,0.8,1.6,1,2.5s0.3,2,0.3,3.2c0,3.9-1.1,8-3.2,12.6c-2.2,4.5-5.2,8.9-9.1,13.2
		c-4.8,5.2-10.2,9.4-16.3,12.6c-6.1,3.2-11.6,4.8-16.3,4.8c-3.2,0-5.9-0.9-7.9-2.6c-2.1-1.7-3.1-3.9-3.1-6.4c0-5.6,4-11.7,12-18.2
		S631,316.6,645.9,310.1z M644.4,313.6c-12.6,6-22.5,12.2-29.6,18.5c-7.2,6.3-10.8,12-10.8,16.9c0,1.5,0.5,2.6,1.4,3.5
		c0.9,0.9,2.1,1.4,3.6,1.4c3.6,0,8.4-3.4,14.5-10.3C629.5,336.7,636.5,326.7,644.4,313.6z"/>
	<path class="st1" d="M708.1,310.1c0-0.3,0.1-0.7,0.1-1c0-0.3,0-0.7,0-1c0-1.6-0.4-2.9-1.2-4.1c-0.8-1.2-2-2.3-3.7-3.4
		c-2.1,2.2-4.4,3.9-6.9,5c-2.6,1.2-5.2,1.7-8,1.7c-1.5,0-2.7-0.3-3.5-0.9c-0.8-0.6-1.2-1.4-1.2-2.5c0-1.8,1.3-3.3,3.8-4.5
		c2.5-1.2,5.8-1.8,9.9-1.8c0.3,0,1.1,0.1,2.3,0.2c1.3,0.2,2.3,0.3,3,0.4c1.2-1.3,2.4-2.7,3.6-4.3c1.3-1.6,3.1-3.9,5.5-7.1
		c-0.1,0-0.2,0-0.4,0c-2,0.2-3.5,0.3-4.4,0.3c-3.4,0-6.1-0.7-8-2.1c-2-1.4-2.9-3.3-2.9-5.8c0-1.6,0.7-3.9,2.2-6.9
		c0.6-1.2,1-2.1,1.2-2.7c-2.5,1.6-5.2,3.5-7.9,5.8s-4.5,3.5-5.3,3.5c-0.2,0-0.4-0.1-0.5-0.2c-0.2-0.1-0.2-0.3-0.2-0.4
		c0-0.6,0.6-1.4,1.7-2.6c1.1-1.2,2.9-2.7,5.4-4.7c4-3.2,6.8-5.2,8.4-6.1c1.6-0.9,3.1-1.3,4.4-1.3c1.7,0,3.1,0.6,4.1,1.8
		c1.1,1.2,1.6,2.7,1.6,4.5c0,2.7-1.2,5.3-3.6,7.9c-2.4,2.6-3.6,4-3.6,4.4c0,0.6,0.3,1.1,0.9,1.4c0.6,0.3,1.4,0.5,2.5,0.5
		c1,0,2-0.1,3.1-0.2c1.1-0.1,2.3-0.3,3.4-0.6c1.4-1.9,3.1-4.6,5.2-8c5.1-8.2,9.1-12.3,12-12.3c1,0,1.7,0.4,2.3,1.1
		c0.6,0.7,0.8,1.7,0.8,2.9c0,2.3-3.5,6.4-10.4,12.2c-6.9,5.8-12.7,12.3-17.4,19.4c2.3,1.1,4.1,2.1,5.4,3.1c1.3,1,2.4,2.2,3.3,3.6
		c8.2-6.3,17.2-13.9,27-22.9s15.7-13.4,17.6-13.4c0.2,0,0.5,0.1,1.1,0.1c0.3,0.1,0.5,0.2,0.7,0.2c-2.6,1.3-8.7,6.4-18.3,15.4
		c-9.6,9-18.4,16.8-26.5,23.2c0.5,0.8,0.8,1.6,1,2.5s0.3,2,0.3,3.2c0,3.9-1.1,8-3.2,12.6c-2.2,4.5-5.2,8.9-9.1,13.2
		c-4.8,5.2-10.2,9.4-16.3,12.6c-6.1,3.2-11.6,4.8-16.3,4.8c-3.2,0-5.9-0.9-7.9-2.6c-2.1-1.7-3.1-3.9-3.1-6.4c0-5.6,4-11.7,12-18.2
		S693.1,316.6,708.1,310.1z M706.6,313.6c-12.6,6-22.5,12.2-29.6,18.5c-7.2,6.3-10.8,12-10.8,16.9c0,1.5,0.5,2.6,1.4,3.5
		c0.9,0.9,2.1,1.4,3.6,1.4c3.6,0,8.4-3.4,14.5-10.3C691.7,336.7,698.6,326.7,706.6,313.6z"/>
	<path class="st1" d="M787.8,271.7l3.7-7.4l15-1.1l-15.8,32.5c-1.3,2.6-2.4,4.8-3.2,6.6s-1.2,2.9-1.2,3.2c0,0.6,0.2,1.1,0.5,1.5
		c0.3,0.4,0.7,0.6,1.2,0.6c1.5,0,6.7-4.5,15.9-13.6c2.3-2.3,4.1-4,5.3-5.3c6.9-6.8,12.2-11.7,15.9-14.7c3.7-3,6.2-4.4,7.7-4.4
		c0.1,0,0.5,0.1,1.1,0.2c0.3,0.1,0.4,0.1,0.5,0.1c-3.6,1.9-9.9,7.4-18.9,16.5c-2.6,2.6-4.6,4.5-6,5.9c-1.1,1.1-2.6,2.7-4.5,4.7
		c-9.7,9.8-17.1,14.7-22.4,14.7c-2.8,0-5-0.8-6.7-2.4c-1.7-1.6-2.6-3.8-2.6-6.4c0-1.6,0.2-3.1,0.5-4.5c0.3-1.4,0.8-2.8,1.5-4.3
		c-4,5.8-8,10.1-12,13.1c-4,3-8,4.4-11.8,4.4c-4,0-7.3-1.3-9.8-3.8c-2.5-2.5-3.8-5.8-3.8-9.9c0-4.5,1.1-8.7,3.3-12.6
		c2.2-3.9,5.6-7.6,10.2-11.2c4.6-3.6,9-6.3,13.1-8.1c4.1-1.8,7.9-2.7,11.3-2.7c3.3,0,6,0.7,7.9,2.1
		C786,266.8,787.3,268.9,787.8,271.7z M785.2,272.8c0-1.8-0.6-3.3-1.7-4.4c-1.1-1.2-2.6-1.7-4.3-1.7c-1.9,0-4.3,1.4-7.1,4.1
		s-6.3,6.9-10.4,12.6c-4.3,5.9-7.4,10.6-9.3,14.3c-2,3.7-2.9,6.6-2.9,8.8c0,1.1,0.2,1.8,0.7,2.3c0.5,0.5,1.3,0.8,2.4,0.8
		c2.3,0,5-1.2,8.2-3.5c3.2-2.3,6.6-5.5,10.1-9.6c4.5-5.2,8-10,10.6-14.2C783.9,277.8,785.2,274.7,785.2,272.8z"/>
</g>
<circle class="st2" cx="138.9" cy="263.3" r="125.4"/>
<g class="st0">
	<path class="st1" d="M190.5,202.9c-3.5-1.6-7.6-2.8-12.2-3.6c-4.6-0.8-9.7-1.2-15.3-1.2c-9.9,0-20.3,1.6-31.3,4.8
		c-11,3.2-20.9,7.5-29.5,12.9c-7.1,4.5-12.9,9.5-17.2,15.2c-4.4,5.6-6.6,10.7-6.6,15.1c0,3.7,1.2,6.7,3.6,9c2.4,2.3,5.7,3.4,9.9,3.4
		c6.5,0,13.7-2.7,21.6-8.2c7.8-5.4,13.7-11.9,17.7-19.5c1.6-3.1,2.7-6.3,3.4-9.8c0.7-3.4,1.4-5.1,2-5.1c0.8,0,1.4,0.5,1.7,1.5
		c0.3,1,0.5,3.1,0.5,6.3c0,11.5-3.9,21.2-11.7,29.2c-7.8,8-17.1,12-27.9,12c-7.1,0-12.9-1.8-17.3-5.4c-4.4-3.6-6.7-8.3-6.7-13.9
		c0-5.2,2.2-10.7,6.6-16.4c4.4-5.7,10.5-11,18.4-15.9c9.1-5.6,19.3-10,30.6-13.1c11.3-3.1,22.6-4.7,33.8-4.7
		c5.7,0,10.9,0.5,15.8,1.5c4.9,1,9.7,2.5,14.4,4.6c3.5-0.9,6.3-1.6,8.6-2.1c2.3-0.5,3.7-0.8,4.3-0.8c0.7,0,1.2,0.1,1.6,0.3
		c0.3,0.2,0.5,0.5,0.5,0.8c0,0.9-1.6,1.7-4.7,2.4c-2.2,0.4-4,0.8-5.5,1.1c5.2,2.3,9.3,5.3,12.1,9c2.9,3.7,4.3,7.8,4.3,12.2
		c0,6.9-3.2,13.1-9.7,18.6c-6.5,5.5-15.7,9.7-27.6,12.7c6.9,2,12.1,5.1,15.5,9.1c3.4,4.1,5.1,9.2,5.1,15.4c0,9.1-4.5,17.5-13.4,25.4
		c-8.9,7.9-18.5,11.8-28.8,11.8c-5.2,0-9.2-1.1-12-3.2s-4.2-5.2-4.2-9.2c0-4.7,2.3-9.4,7-14.1c4.7-4.8,8.2-7.1,10.7-7.1
		c0.4,0,0.8,0.1,1.2,0.4c0.3,0.3,0.5,0.6,0.5,0.9c0,0.5-1.1,1.5-3.4,3c-8.1,5.4-12.1,11-12.1,16.7c0,2.5,0.7,4.5,2.1,6
		c1.4,1.5,3.2,2.3,5.5,2.3c2.9,0,5.9-1.2,8.9-3.6c3-2.4,6.2-6,9.5-10.9c3.6-5.4,6.4-10.6,8.2-15.5c1.8-4.9,2.7-9.6,2.7-14
		c0-3.3-0.7-6.1-2.1-8.4c-1.4-2.3-3.1-3.4-5-3.4c-0.6,0-1.7,0.1-3.3,0.4c-1.6,0.3-3.1,0.4-4.2,0.4c-1.3,0-2.3-0.3-3.1-0.8
		c-0.8-0.6-1.2-1.3-1.2-2.1c0-0.8,0.3-1.4,0.9-1.8c0.6-0.5,1.5-0.7,2.5-0.7c0.3,0,1.4,0.2,3.4,0.5c2,0.3,3.9,0.5,5.7,0.5
		c4.9,0,10.1-4,15.6-11.9c5.5-8,8.2-16.3,8.2-24.9c0-2.6-0.5-5.1-1.4-7.2c-0.9-2.2-2.2-4-3.9-5.5c-11.5,4-21.7,17.5-30.7,40.4
		c-2.6,6.9-4.8,12.1-6.4,15.7c-8.4,19.1-18.5,33.1-30.1,42c-11.6,8.9-25.6,13.4-42.1,13.4c-9.3,0-16.8-2-22.4-6
		c-5.6-4-8.4-9.3-8.4-15.9c0-4.8,1.6-8.8,4.8-12.2c3.2-3.3,7.1-5,11.8-5c3.3,0,6.1,0.9,8.2,2.7c2.1,1.8,3.2,4.1,3.2,6.8
		c0,2.5-0.7,4.7-2.1,6.4c-1.4,1.8-3.1,2.7-5,2.8c-0.1,0-0.2,0-0.5,0c-7.9,0.6-11.8,2.7-11.8,6.1c0,3,2,5.6,6,7.8
		c4,2.2,9,3.3,14.8,3.3c5.3,0,10.2-1.1,14.5-3.4c4.3-2.3,8.5-6,12.6-11c4.2-5.2,9.5-13.7,16-25.4c6.5-11.7,11.1-19.8,13.8-24.2
		c7.7-12.3,16-22.4,24.8-30.5C173.7,210.3,182.3,205.1,190.5,202.9z"/>
</g>
<g class="st0">
	<path class="st1" d="M350,353.9l-21.7,39c-1.4,2.5-2.5,4.7-3.3,6.5c-0.8,1.8-1.2,3-1.2,3.6c0,0.2,0.1,0.3,0.3,0.4
		c0.2,0.1,0.5,0.1,0.9,0.1c1,0,2.3-0.5,3.8-1.5s3.4-2.7,5.8-5.1l3.1-3c8.5-8.5,13.5-12.7,14.9-12.7c0.1,0,0.2,0,0.3,0
		c0.1,0,0.3,0.1,0.6,0.1c-2.3,1.3-6,4.6-11.1,9.8c-1.1,1.2-2,2-2.6,2.6l-1.1,1.1c-6.7,6.9-11.7,10.3-15,10.3c-1.8,0-3.2-0.4-4.2-1.3
		c-1-0.9-1.5-2.1-1.5-3.7c0-0.9,0.1-1.8,0.3-2.5c0.2-0.8,0.5-1.6,0.9-2.4c-2.8,3.5-5.2,6-7.3,7.6c-2.1,1.5-4.2,2.3-6.2,2.3
		c-2.2,0-4-0.7-5.4-2.1c-1.4-1.4-2.1-3.3-2.1-5.6c0-2.5,0.6-4.9,1.9-7.1c1.2-2.2,3.2-4.3,5.8-6.3c2.6-2,5.1-3.5,7.4-4.6
		c2.3-1,4.4-1.5,6.4-1.5c1.9,0,3.4,0.4,4.5,1.2c1.1,0.8,1.8,2,2.1,3.6l15.4-28L350,353.9z M324.5,383.4c0-1-0.3-1.9-0.9-2.5
		c-0.6-0.7-1.4-1-2.4-1c-1.1,0-2.4,0.8-4.1,2.3s-3.6,3.9-5.9,7c-2.4,3.3-4.2,6-5.3,8.1c-1.1,2.1-1.7,3.7-1.7,5c0,0.6,0.1,1,0.4,1.3
		c0.3,0.3,0.7,0.4,1.3,0.4c1.3,0,2.9-0.6,4.7-1.9c1.8-1.3,3.7-3.1,5.7-5.4c2.5-2.9,4.5-5.6,6-8C323.7,386.3,324.5,384.5,324.5,383.4
		z"/>
	<path class="st1" d="M368.7,382.8l2.1-4.2l8.5-0.6l-8.9,18.3c-0.7,1.5-1.3,2.7-1.8,3.7c-0.5,1-0.7,1.6-0.7,1.8
		c0,0.3,0.1,0.6,0.3,0.8c0.2,0.2,0.4,0.3,0.7,0.3c0.8,0,3.8-2.6,8.9-7.7c1.3-1.3,2.3-2.3,3-3c3.9-3.8,6.9-6.6,8.9-8.3
		c2.1-1.7,3.5-2.5,4.4-2.5c0.1,0,0.3,0,0.6,0.1c0.1,0,0.2,0,0.3,0c-2,1.1-5.6,4.2-10.7,9.3c-1.4,1.4-2.6,2.6-3.4,3.3
		c-0.6,0.6-1.4,1.5-2.5,2.6c-5.5,5.5-9.7,8.3-12.6,8.3c-1.6,0-2.8-0.5-3.8-1.4c-1-0.9-1.4-2.1-1.4-3.6c0-0.9,0.1-1.8,0.3-2.5
		c0.2-0.8,0.5-1.6,0.9-2.4c-2.2,3.3-4.5,5.7-6.8,7.4c-2.3,1.7-4.5,2.5-6.6,2.5c-2.3,0-4.1-0.7-5.5-2.1c-1.4-1.4-2.1-3.3-2.1-5.6
		c0-2.5,0.6-4.9,1.9-7.1s3.2-4.3,5.8-6.3c2.6-2,5.1-3.5,7.4-4.6c2.3-1,4.4-1.5,6.4-1.5c1.9,0,3.4,0.4,4.5,1.2
		C367.7,380.1,368.4,381.3,368.7,382.8z M367.2,383.4c0-1-0.3-1.9-1-2.5c-0.6-0.7-1.4-1-2.4-1c-1.1,0-2.4,0.8-4,2.3
		c-1.6,1.5-3.6,3.9-5.9,7.1c-2.4,3.3-4.2,6-5.3,8.1s-1.7,3.7-1.7,5c0,0.6,0.1,1,0.4,1.3c0.3,0.3,0.7,0.4,1.3,0.4
		c1.3,0,2.8-0.6,4.6-1.9c1.8-1.3,3.7-3.1,5.7-5.4c2.5-2.9,4.5-5.6,6-8C366.5,386.3,367.2,384.5,367.2,383.4z"/>
	<path class="st1" d="M391.2,384.3c-0.8,0.8-1.9,1.8-3.1,3.1c-2,2-3.2,3.1-3.6,3.1c-0.2,0-0.4-0.1-0.5-0.2c-0.1-0.1-0.2-0.3-0.2-0.5
		c0-0.3,0.6-1.1,1.9-2.3c0.7-0.7,1.3-1.4,1.8-1.9l2.2-2.2c1-1.1,2-2.1,2.8-3.2c0.8-1,1.6-2,2.2-2.9l13.7-22.4l8.3-0.9l-18.6,34.2
		c-0.8,1.4-1.9,3.4-3.2,5.8c-2.6,4.7-3.9,7.4-3.9,8.2c0,0.3,0.1,0.6,0.4,0.8c0.2,0.2,0.6,0.3,1,0.3c1.2,0,4.8-3,10.8-9
		c1.4-1.4,2.4-2.4,3.2-3.2c3.6-3.5,6.3-6,8.1-7.5c1.9-1.5,3.2-2.2,3.9-2.2c0.1,0,0.3,0,0.7,0.1c0.1,0,0.2,0,0.3,0
		c-2.5,1.4-5.9,4.4-10.4,9.1c-0.6,0.6-1,1.1-1.3,1.4c-0.5,0.6-1.3,1.4-2.3,2.4c-7,7.3-11.9,10.9-14.8,10.9c-1.8,0-3.1-0.5-4.2-1.6
		c-1-1.1-1.5-2.5-1.5-4.3c0-1.5,0.5-3.4,1.5-5.9C387.5,391.1,389.1,388,391.2,384.3z"/>
	<path class="st1" d="M430.7,397.5c1-0.5,2-0.8,2.9-1c0.9-0.2,1.9-0.3,2.9-0.3c2.5,0,5.3,0.7,8.2,2c2.9,1.3,4.7,2,5.3,2
		c1.2,0,2.4-0.8,3.8-2.3c1.3-1.6,2.2-2.3,2.5-2.3c0.1,0,0.2,0,0.3,0.1c0.1,0.1,0.1,0.1,0.1,0.3c0,1.3-1.5,3.3-4.6,5.8
		c-3.1,2.5-6.1,3.8-9.1,3.8c-2,0-4.3-0.8-7-2.4c-2.7-1.6-4.5-2.4-5.6-2.4c-1.4,0-2.6,0.8-3.7,2.3s-1.8,2.3-2,2.3
		c-0.2,0-0.4,0-0.5-0.1c-0.1-0.1-0.2-0.2-0.2-0.4c0-0.3,0.2-0.9,0.5-1.8c0.4-0.9,0.8-1.8,1.3-2.6c1.3-2.2,4.4-4.8,9.2-8
		c1-0.7,1.7-1.1,2.2-1.5c5.8-3.9,9.9-7.3,12.3-10.3c2.4-3,3.6-6.1,3.6-9.2c0-1.3-0.4-2.3-1.1-3c-0.7-0.7-1.8-1.1-3.1-1.1
		c-1.3,0-2.7,0.3-4.3,1s-3.1,1.5-4.6,2.7c-1.8,1.4-3.3,2.9-4.4,4.6c-1.2,1.7-1.8,3.1-1.8,4.2c0,0.8,0.2,1.4,0.5,1.8
		c0.3,0.4,0.8,0.6,1.4,0.6c1.9,0,3.7-1.2,5.6-3.6c1.8-2.4,2.8-3.6,3-3.6c0.2,0,0.3,0.1,0.4,0.3c0.1,0.2,0.2,0.4,0.2,0.6
		c0,0.9-1.1,2.4-3.2,4.6c-2.1,2.2-4.1,3.3-6.1,3.3c-1.2,0-2.1-0.3-2.7-0.9c-0.6-0.6-0.9-1.5-0.9-2.7c0-3.2,1.9-6.4,5.7-9.6
		s8-4.8,12.7-4.8c3.4,0,6.2,0.9,8.4,2.6c2.1,1.8,3.2,4,3.2,6.9c0,2.5-0.9,4.8-2.8,6.9c-1.9,2.1-4.6,3.9-8.2,5.5
		c-1.2,0.5-2.9,1.2-5.1,2.2C438.6,392.5,433.6,395.2,430.7,397.5z"/>
	<path class="st1" d="M463.4,393.3c0-3.5,1.1-7,3.3-10.5s5.4-7,9.7-10.4c2.8-2.2,5.4-3.9,8-5.1c2.6-1.2,4.9-1.8,7.1-1.8
		c2.5,0,4.6,0.8,6.1,2.5s2.2,3.9,2.2,6.7c0,3.2-1,6.6-3,10.4c-2,3.7-5,7.6-8.8,11.6c-3,3-5.6,5.2-8,6.6c-2.4,1.4-4.7,2.1-7,2.1
		c-2.6,0-4.8-1.2-6.7-3.6C464.4,399.5,463.4,396.6,463.4,393.3z M491.7,367.4c-1.7,0-3.4,0.8-5.3,2.3s-3.7,3.7-5.3,6.4
		c-3.4,5.7-6.2,10.6-8.2,14.9c-2,4.3-3,7.2-3,8.7c0,1.3,0.3,2.2,1,2.9s1.6,1,2.9,1c1.7,0,3.5-0.7,5.4-2.1s4-3.5,6.1-6.2
		c3.2-4.1,5.8-8.3,7.8-12.7c2-4.3,3-7.7,3-10.1c0-1.8-0.4-3.1-1.1-3.9C494.2,367.8,493.1,367.4,491.7,367.4z"/>
	<path class="st1" d="M500,393.3c0-3.5,1.1-7,3.3-10.5s5.4-7,9.7-10.4c2.8-2.2,5.4-3.9,8-5.1c2.6-1.2,4.9-1.8,7.1-1.8
		c2.5,0,4.6,0.8,6.1,2.5s2.2,3.9,2.2,6.7c0,3.2-1,6.6-3,10.4c-2,3.7-5,7.6-8.8,11.6c-3,3-5.6,5.2-8,6.6c-2.4,1.4-4.7,2.1-7,2.1
		c-2.6,0-4.8-1.2-6.7-3.6C500.9,399.5,500,396.6,500,393.3z M528.2,367.4c-1.7,0-3.4,0.8-5.3,2.3s-3.7,3.7-5.3,6.4
		c-3.4,5.7-6.2,10.6-8.2,14.9c-2,4.3-3,7.2-3,8.7c0,1.3,0.3,2.2,1,2.9s1.6,1,2.9,1c1.7,0,3.5-0.7,5.4-2.1s4-3.5,6.1-6.2
		c3.2-4.1,5.8-8.3,7.8-12.7c2-4.3,3-7.7,3-10.1c0-1.8-0.4-3.1-1.1-3.9C530.8,367.8,529.7,367.4,528.2,367.4z"/>
	<path class="st1" d="M549.4,386.1c1.5-1.2,3-2,4.6-2.6c1.6-0.6,3.3-0.9,5-0.9c2.6,0,4.7,0.7,6.1,2.1c1.5,1.4,2.2,3.3,2.2,5.7
		c0,4.1-1.9,7.6-5.7,10.6c-3.8,3-8.2,4.4-13.2,4.4c-3.4,0-6.2-1-8.3-3.1c-2.1-2-3.1-4.8-3.1-8.2c0-3.1,0.7-6.1,2.2-9.2
		c1.5-3,3.7-6,6.7-9c3.4-3.4,6.9-6,10.3-7.8c3.4-1.8,6.8-2.6,10.2-2.6c2.7,0,4.8,0.6,6.5,1.9c1.6,1.3,2.5,2.9,2.5,4.9
		c0,1.3-0.4,2.5-1.3,3.4s-2,1.4-3.2,1.4c-1.1,0-2-0.3-2.7-1c-0.7-0.7-1.1-1.5-1.1-2.5c0-1.1,0.5-2,1.6-2.9s1.6-1.5,1.6-1.9
		c0-0.5-0.3-0.9-0.8-1.3c-0.6-0.3-1.3-0.5-2.1-0.5c-3.4,0-6.6,1.6-9.6,4.7S552,379.7,549.4,386.1z M556.9,384.6
		c-1.3,0-2.8,0.6-4.6,1.7c-1.7,1.1-3.2,2.6-4.5,4.3c-1.3,1.8-2.2,3.5-2.9,5.2c-0.7,1.7-1,3.2-1,4.5c0,1,0.4,1.9,1.1,2.5
		c0.7,0.7,1.6,1,2.8,1c1.1,0,2.3-0.3,3.5-1c1.2-0.7,2.5-1.7,3.7-2.9c1.5-1.6,2.8-3.6,3.8-5.8c1-2.2,1.5-4.1,1.5-5.6
		c0-1.3-0.3-2.3-0.8-2.9C558.9,384.9,558.1,384.6,556.9,384.6z"/>
</g>
</svg>
