<?xml version="1.0" encoding="utf-8"?>
<!-- Generator: Adobe Illustrator 23.0.0, SVG Export Plug-In . SVG Version: 6.00 Build 0)  -->
<svg version="1.1" id="Livello_1" xmlns="http://www.w3.org/2000/svg" xmlns:xlink="http://www.w3.org/1999/xlink" x="0px" y="0px"
	 viewBox="0 0 841.9 595.3" style="enable-background:new 0 0 841.9 595.3;" xml:space="preserve">
<style type="text/css">
	.st0{fill:none;stroke:#000000;stroke-width:15;stroke-miterlimit:10;}
	.st1{enable-background:new    ;}
</style>
<circle class="st0" cx="433.6" cy="284.8" r="254.5"/>
<g class="st1">
	<path d="M538.3,162.5c-7-3.3-15.5-5.9-24.7-7.3c-9.4-1.6-19.7-2.3-31-2.3c-20,0-41.3,3.3-63.6,9.9c-22.3,6.6-42.3,15.3-59.9,26.3
		c-14.3,9.2-26.1,19.3-35,30.8c-8.9,11.5-13.4,21.6-13.4,30.5c0,7.5,2.3,13.6,7.3,18.1c4.9,4.7,11.5,6.8,20,6.8
		c13.4,0,27.9-5.6,43.7-16.7c16-11,27.9-24.2,35.9-39.4c3.3-6.3,5.4-12.9,6.8-19.7c1.4-7,2.8-10.3,4-10.3c1.6,0,2.8,0.9,3.5,3.1
		c0.7,1.9,0.9,6.1,0.9,12.7c0,23.2-8,43-23.7,59.2c-15.7,16.2-34.7,24.4-56.6,24.4c-14.3,0-26.1-3.8-35.2-11
		c-8.9-7.3-13.4-16.7-13.4-28.2c0-10.6,4.5-21.6,13.4-33.3c8.9-11.5,21.4-22.3,37.3-32.2c18.3-11.3,39-20.2,62-26.5
		c23-6.3,45.8-9.4,68.6-9.4c11.5,0,22.1,0.9,32.2,3.1c9.9,2.1,19.7,5.2,29.1,9.4c7-1.9,12.9-3.3,17.4-4.2c4.7-0.9,7.5-1.6,8.9-1.6
		s2.3,0.2,3.1,0.5c0.7,0.5,0.9,0.9,0.9,1.6c0,1.9-3.3,3.5-9.6,4.7c-4.5,0.7-8.2,1.6-11,2.3c10.6,4.7,18.8,10.8,24.7,18.3
		c5.9,7.5,8.7,16,8.7,24.9c0,14.1-6.6,26.5-19.7,37.8c-13.1,11-31.7,19.7-55.9,25.8c14.1,4,24.7,10.3,31.5,18.5
		c7,8.2,10.3,18.8,10.3,31.2c0,18.3-9.2,35.7-27.2,51.7c-18.1,16-37.6,23.9-58.5,23.9c-10.6,0-18.5-2.1-24.4-6.6
		c-5.9-4.5-8.7-10.6-8.7-18.5c0-9.4,4.7-19,14.1-28.6c9.4-9.6,16.7-14.6,21.6-14.6c0.9,0,1.6,0.2,2.3,0.7c0.7,0.5,0.9,1.2,0.9,1.9
		c0,0.9-2.3,3.1-6.8,6.1c-16.4,11-24.4,22.3-24.4,33.8c0,5.2,1.4,9.2,4.2,12.2c2.8,3.1,6.6,4.7,11,4.7c5.9,0,12-2.3,18.1-7.3
		c6.1-4.9,12.7-12.2,19.3-22.1c7.5-11,12.9-21.4,16.7-31.5c3.8-9.9,5.6-19.5,5.6-28.4c0-6.6-1.4-12.2-4.2-16.9
		c-2.8-4.7-6.1-7-10.1-7c-1.2,0-3.3,0.2-6.8,0.9c-3.3,0.5-6.1,0.9-8.7,0.9c-2.6,0-4.7-0.5-6.1-1.6c-1.6-1.2-2.3-2.6-2.3-4.2
		s0.7-2.8,1.9-3.8c1.2-0.9,3.1-1.4,5.2-1.4c0.5,0,2.8,0.5,6.8,0.9c4,0.7,8,0.9,11.5,0.9c9.9,0,20.4-8,31.7-24.2
		c11.3-16.2,16.7-32.9,16.7-50.5c0-5.4-0.9-10.3-2.8-14.6c-1.9-4.5-4.5-8.2-8-11.3c-23.2,8.2-43.9,35.5-62.2,81.9
		c-5.4,13.9-9.6,24.4-12.9,31.7c-17.1,38.7-37.3,67.1-61,85c-23.5,18.1-51.9,27-85.2,27c-18.8,0-34-4-45.5-12.2
		s-17.1-18.8-17.1-32.2c0-9.6,3.3-17.8,9.9-24.7s14.6-10.1,23.9-10.1c6.8,0,12.2,1.9,16.7,5.4c4.2,3.5,6.6,8.2,6.6,13.9
		c0,5.2-1.4,9.4-4.2,12.9c-2.8,3.5-6.1,5.4-10.1,5.6c-0.2,0-0.5,0-0.9,0c-16,1.2-23.9,5.4-23.9,12.4c0,6.1,4,11.5,12.2,15.7
		c8.2,4.5,18.1,6.6,30.1,6.6c10.8,0,20.7-2.3,29.3-7c8.7-4.7,17.4-12.2,25.6-22.3c8.5-10.6,19.3-27.7,32.4-51.4
		c13.1-23.7,22.5-40.1,27.9-49.1c15.5-24.9,32.4-45.5,50.2-62C504,177.2,521.4,166.9,538.3,162.5z"/>
</g>
</svg>
