<?xml version="1.0" encoding="utf-8"?>
<!-- Generator: Adobe Illustrator 23.0.0, SVG Export Plug-In . SVG Version: 6.00 Build 0)  -->
<svg version="1.1" id="Livello_1" xmlns="http://www.w3.org/2000/svg" xmlns:xlink="http://www.w3.org/1999/xlink" x="0px" y="0px"
	 viewBox="0 0 841.9 595.3" style="enable-background:new 0 0 841.9 595.3;" xml:space="preserve">
<style type="text/css">
	.st0{enable-background:new    ;}
	.st1{fill:#FFFFFF;}
	.st2{fill:none;stroke:#FFFFFF;stroke-width:15;stroke-miterlimit:10;}
</style>
<g class="st0">
	
		<image style="overflow:visible;opacity:0.75;enable-background:new    ;" width="580" height="175" xlink:href="CA20EE24.png"  transform="matrix(0.9979 0 0 0.9979 278.1464 207.1428)">
	</image>
	<g>
		<g>
			<path class="st1" d="M303,296.8c-1.2,3.3-2,5.7-2.4,7.3c-0.5,1.6-0.7,2.8-0.7,3.6c0,1.1,0.4,1.8,1.1,2.3c0.8,0.5,1.9,0.7,3.5,0.7
				c4,0,8.1-1.2,12.6-3.5c4.4-2.3,10.6-7,18.6-14c2.7-2.3,6.2-5.4,10.5-9.4c9.1-8.3,14.7-12.5,16.8-12.5c0.1,0,0.3,0,0.7,0.1
				c0.4,0.1,0.6,0.1,0.8,0.2c-3.3,1.8-8.4,6-15.2,12.7c-3.4,3.4-6.1,6-8,7.8c-9.8,8.9-17.3,14.8-22.3,17.5c-5.1,2.8-10,4.1-14.9,4.1
				c-5.2,0-9.3-1.5-12.4-4.4s-4.7-6.8-4.7-11.5c0-4,1.2-7.8,3.5-11.6c2.4-3.8,5.9-7.5,10.7-11.2c4.1-3.1,8.2-5.5,12.3-7.3
				s7.9-2.6,11.2-2.6c3.1,0,5.5,0.9,7.2,2.6c1.8,1.7,2.6,4.1,2.6,7.1c0,4.8-2.9,9.3-8.8,13.4C319.9,292.4,312.3,295.2,303,296.8z
				 M303.9,294.3c6.3-1,11.9-3.7,16.8-8.3c4.9-4.6,7.4-9,7.4-13.2c0-1.2-0.3-2.2-1-3.1s-1.5-1.3-2.4-1.3c-2.6,0-6,2.5-10.2,7.5
				C310.3,280.9,306.7,287.1,303.9,294.3z"/>
			<path class="st1" d="M361.9,273.3c-3.2,2.2-6.4,5.1-9.8,8.6c-3.4,3.6-5.4,5.3-6.1,5.3c-0.4,0-0.6-0.1-0.9-0.3s-0.3-0.5-0.3-0.9
				c0-0.6,1.2-2,3.5-4.1c1.1-1,1.9-1.7,2.6-2.3l4.6-4.4c0.6-0.5,1.3-1.2,2.3-2.1c3.7-3.5,5.9-5.8,6.7-6.9c0.3-0.6,0.8-1.3,1.4-2.3
				c1.2-2.1,2.2-3.1,3.2-3.1c0.5,0,0.9,0.2,1.2,0.5c0.4,0.4,0.6,0.7,0.6,1.1s-0.7,1.3-2,2.8s-2,2.7-2,3.8c0,0.9,1.4,3.5,4.2,7.7
				c2.8,4.3,4.2,8.8,4.2,13.7c0,2.4-0.4,4.5-1.2,6.4c-0.8,1.9-2.2,4-4.2,6.2c6.3-5,13.7-11.5,22.3-19.7c8.5-8.1,13.9-12.2,16.1-12.2
				c1.1,0,1.9-0.2,2.5-0.6c-0.1,0-0.2,0.1-0.3,0.2c-0.1,0.2-0.3,0.4-0.5,0.7c-4,2.2-9.5,7-16.5,14.3c-2.6,2.7-4.5,4.7-5.9,6.1
				c-9.3,9.2-16.3,15.1-21,17.9c-4.8,2.7-9.6,4.1-14.5,4.1c-3.9,0-7.1-1-9.7-3s-3.9-4.4-3.9-7.3c0-1.9,0.6-3.5,1.9-4.8s2.8-2,4.7-2
				c1.7,0,3,0.5,3.9,1.5c1,1,1.5,2.4,1.5,4.2c0,1.3-0.5,2.5-1.5,3.6s-2,1.6-3.2,1.6c-0.5,0-0.8,0-1.2-0.1c-0.3,0-0.6-0.1-0.9-0.2
				c0.8,0.9,1.5,1.5,2.4,1.9c0.8,0.4,1.7,0.6,2.7,0.6c4.1,0,7.3-3,9.8-8.9c2.5-6,3.7-13.9,3.7-23.8v-3.8L361.9,273.3L361.9,273.3z"
				/>
			<path class="st1" d="M403,276.4c-1.5,1.4-3.3,3.2-5.5,5.5c-3.5,3.6-5.6,5.4-6.4,5.4c-0.4,0-0.6-0.1-0.9-0.3s-0.3-0.5-0.3-0.9
				c0-0.6,1.1-1.9,3.2-3.8c1.6-1.4,2.9-2.5,3.8-3.5l4.4-4.3c4.3-4.2,8.8-10.1,13.4-17.8c0.5-0.8,0.9-1.4,1.1-1.7l17.4-28.8l15.5-0.6
				l-11.5,19.7H448l-0.9,3.5h-12.5L416.4,280c-4,6.8-7.2,12.8-9.6,18.2c-2.4,5.3-3.6,8.8-3.6,10.5c0,0.4,0.2,0.7,0.5,1
				c0.4,0.3,0.8,0.4,1.4,0.4c1.3,0,3.5-1.3,6.8-3.9s8.2-7.2,14.8-13.6l1.7-1.8c13.3-13,21.2-19.5,23.6-19.5c0.2,0,0.6,0.1,1.2,0.2
				c0.3,0.1,0.4,0.1,0.5,0.1c-3.6,1.9-9.6,7.2-18.1,15.9c-3.4,3.5-6,6.1-7.9,8l-1.2,1.1c-11.3,11.3-19.6,17-24.8,17
				c-3,0-5.3-0.9-6.9-2.8c-1.7-1.9-2.5-4.4-2.5-7.7c0-3.8,2.6-10.8,7.9-21.2C401.4,279.5,402.4,277.7,403,276.4z"/>
			<path class="st1" d="M532.6,273.1c-4.7,0.4-9.3,1.3-14.1,2.9c-1.2,0.4-1.9,0.6-2.2,0.6c-0.4,0-0.7-0.1-0.9-0.3
				c-0.2-0.1-0.3-0.3-0.4-0.5c0-0.5,0.3-0.9,0.9-1.4c0.6-0.5,1.2-0.7,1.7-0.7c0.2,0,0.6-0.1,1.4-0.4c4.7-1.7,9.7-2.8,15-3.3
				c5.6-11.8,11.9-21.7,19-29.5c7.1-7.9,14.7-13.6,22.9-17.1c-2.8-1.6-5.9-2.7-9.4-3.5s-7.3-1.1-11.7-1.1c-7.4,0-14.9,1.1-22.7,3.3
				c-7.7,2.2-14.7,5.3-20.9,9.2c-6.2,3.8-10.9,7.9-14.2,12.3c-3.3,4.4-5,8.7-5,13c0,3.2,0.9,5.7,2.8,7.6c1.9,1.8,4.4,2.7,7.7,2.7
				c5.1,0,10.6-2.5,16.5-7.4c5.9-5,10.5-11.2,13.9-18.7c1.1-2.4,1.9-4.9,2.5-7.8c0.6-2.8,1.2-4.2,1.6-4.2c0.7,0,1.1,0.4,1.4,1.2
				c0.3,0.8,0.4,2.8,0.4,6.2c0,10.3-3,18.7-8.9,25.1c-5.9,6.4-13.5,9.7-22.8,9.7c-5.3,0-9.5-1.3-12.6-3.8s-4.7-5.9-4.7-10.2
				c0-4,1.3-8.1,3.9-12.3s6.2-8.1,10.8-11.6c7-5.3,14.8-9.4,23.5-12.3c8.7-2.9,17.7-4.3,27-4.3c4.7,0,8.9,0.4,12.7,1.3
				c3.7,0.9,7.5,2.3,11.2,4.2c2.8-1.1,5.4-1.9,7.8-2.5c2.4-0.6,4.3-0.9,5.7-0.9c0.3,0,0.7,0.1,0.9,0.3c0.3,0.2,0.4,0.3,0.4,0.5
				c0,0.5-1.4,1-4.1,1.5c-2.7,0.5-5.5,1.3-8.2,2.5c3.7,2,6.5,4.5,8.5,7.7s3,6.7,3,10.5c0,7.2-3.9,13.6-11.6,19.1
				c-7.7,5.5-17.7,8.8-29.8,10c-4.6,13.4-11.7,23.9-21.5,31.6s-20.8,11.5-33.1,11.5c-7.1,0-12.7-1.5-17-4.6s-6.4-7.1-6.4-12.1
				c0-3.9,1.3-7.2,3.8-9.8c2.5-2.6,5.6-3.9,9.2-3.9c2.6,0,4.6,0.7,6.1,2.1s2.3,3.3,2.3,5.7c0,2-0.6,3.5-1.8,4.6
				c-1.2,1.1-3.2,1.9-6.1,2.4l-0.2,0.1c-4,0.9-5.9,2.3-5.9,4.3c0,2.1,1.5,4.1,4.5,6s6.5,2.8,10.4,2.8c7.2,0,13.8-3,19.7-9.1
				C521.1,296.1,526.9,286.5,532.6,273.1z M552.6,268c8-0.9,14.8-4.6,20.4-11.2c5.7-6.5,8.5-13.8,8.5-21.8c0-2.4-0.3-4.3-0.9-6
				c-0.6-1.6-1.6-3.1-2.9-4.3c-4.4,2-8.5,6.2-12.4,12.7C561.5,244.1,557.2,254.2,552.6,268z"/>
			<path class="st1" d="M588,276.5l-4.6,4.4c-0.7,0.7-1.6,1.5-2.7,2.6c-2.2,2.2-3.5,3.2-3.9,3.2s-0.8-0.1-1.1-0.2s-0.4-0.3-0.4-0.6
				c0-0.6,1-1.7,2.9-3.4c1.4-1.3,2.5-2.3,3.3-3.1l5-5c0.2-0.2,0.4-0.4,0.8-0.8c2.9-2.9,5.1-5.3,6.8-7.4l16-1.1l-15.6,28.5
				c-2.4,4.3-4.1,7.7-5.4,10.3c-1.2,2.6-1.8,4.2-1.8,4.8c0,0.4,0.1,0.7,0.4,1c0.3,0.3,0.6,0.4,1,0.4c1.4,0,3.9-1.4,7.4-4.2
				c3.5-2.8,8-7,13.3-12.4c9.2-9.3,15.5-15.4,18.9-18.2c3.4-2.8,5.8-4.2,7.3-4.2c0.1,0,0.5,0.1,1.1,0.2c0.3,0.1,0.5,0.1,0.6,0.1
				c-4,2.1-10.4,7.8-19.2,17.1c-2.9,3.1-5.2,5.4-6.8,7.1c-6.8,7-12.1,11.7-15.9,14.2c-3.8,2.5-7.3,3.8-10.6,3.8
				c-2.9,0-5.2-0.9-6.8-2.6s-2.4-4.1-2.4-7.3c0-4.1,3.3-11.8,9.8-23.1C586.6,278.9,587.4,277.5,588,276.5z M602,249.7
				c0-2,0.9-3.8,2.6-5.4c1.7-1.6,3.7-2.4,5.8-2.4c1.9,0,3.3,0.6,4.5,1.7c1.1,1.1,1.7,2.6,1.7,4.4c0,2.2-0.8,4-2.4,5.6
				c-1.6,1.6-3.5,2.4-5.7,2.4c-2.1,0-3.6-0.5-4.8-1.6C602.6,253.1,602,251.6,602,249.7z"/>
			<path class="st1" d="M646.3,312.1c0-0.3,0.1-0.7,0.1-1s0-0.7,0-1c0-1.6-0.4-2.9-1.2-4.1s-2-2.3-3.7-3.4c-2.1,2.2-4.4,3.9-6.9,5
				c-2.6,1.2-5.2,1.7-8,1.7c-1.5,0-2.7-0.3-3.5-0.9s-1.2-1.4-1.2-2.5c0-1.8,1.3-3.3,3.8-4.5s5.8-1.8,9.9-1.8c0.3,0,1.1,0.1,2.3,0.2
				c1.3,0.2,2.3,0.3,3,0.4c1.2-1.3,2.4-2.7,3.6-4.3c1.3-1.6,3.1-3.9,5.5-7.1c-0.1,0-0.2,0-0.4,0c-2,0.2-3.5,0.3-4.4,0.3
				c-3.4,0-6.1-0.7-8-2.1c-2-1.4-2.9-3.3-2.9-5.8c0-1.6,0.7-3.9,2.2-6.9c0.6-1.2,1-2.1,1.2-2.7c-2.5,1.6-5.2,3.5-7.9,5.8
				s-4.5,3.5-5.3,3.5c-0.2,0-0.4-0.1-0.5-0.2c-0.2-0.1-0.2-0.3-0.2-0.4c0-0.6,0.6-1.4,1.7-2.6c1.1-1.2,2.9-2.7,5.4-4.7
				c4-3.2,6.8-5.2,8.4-6.1c1.6-0.9,3.1-1.3,4.4-1.3c1.7,0,3.1,0.6,4.1,1.8c1.1,1.2,1.6,2.7,1.6,4.5c0,2.7-1.2,5.3-3.6,7.9
				c-2.4,2.6-3.6,4-3.6,4.4c0,0.6,0.3,1.1,0.9,1.4c0.6,0.3,1.4,0.5,2.5,0.5c1,0,2-0.1,3.1-0.2s2.3-0.3,3.4-0.6
				c1.4-1.9,3.1-4.6,5.2-8c5.1-8.2,9.1-12.3,12-12.3c1,0,1.7,0.4,2.3,1.1s0.8,1.7,0.8,2.9c0,2.3-3.5,6.4-10.4,12.2
				c-6.9,5.8-12.7,12.3-17.4,19.4c2.3,1.1,4.1,2.1,5.4,3.1c1.3,1,2.4,2.2,3.3,3.6c8.2-6.3,17.2-13.9,27-22.9S696,271,697.9,271
				c0.2,0,0.5,0.1,1.1,0.1c0.3,0.1,0.5,0.2,0.7,0.2c-2.6,1.3-8.7,6.4-18.3,15.4s-18.4,16.8-26.5,23.2c0.5,0.8,0.8,1.6,1,2.5
				s0.3,2,0.3,3.2c0,3.9-1.1,8-3.2,12.6c-2.2,4.5-5.2,8.9-9.1,13.2c-4.8,5.2-10.2,9.4-16.3,12.6s-11.6,4.8-16.3,4.8
				c-3.2,0-5.9-0.9-7.9-2.6c-2.1-1.7-3.1-3.9-3.1-6.4c0-5.6,4-11.7,12-18.2S631.4,318.6,646.3,312.1z M644.8,315.6
				c-12.6,6-22.5,12.2-29.6,18.5c-7.2,6.3-10.8,12-10.8,16.9c0,1.5,0.5,2.6,1.4,3.5s2.1,1.4,3.6,1.4c3.6,0,8.4-3.4,14.5-10.3
				C629.9,338.7,636.9,328.7,644.8,315.6z"/>
			<path class="st1" d="M708.5,312.1c0-0.3,0.1-0.7,0.1-1s0-0.7,0-1c0-1.6-0.4-2.9-1.2-4.1s-2-2.3-3.7-3.4c-2.1,2.2-4.4,3.9-6.9,5
				c-2.6,1.2-5.2,1.7-8,1.7c-1.5,0-2.7-0.3-3.5-0.9s-1.2-1.4-1.2-2.5c0-1.8,1.3-3.3,3.8-4.5s5.8-1.8,9.9-1.8c0.3,0,1.1,0.1,2.3,0.2
				c1.3,0.2,2.3,0.3,3,0.4c1.2-1.3,2.4-2.7,3.6-4.3c1.3-1.6,3.1-3.9,5.5-7.1c-0.1,0-0.2,0-0.4,0c-2,0.2-3.5,0.3-4.4,0.3
				c-3.4,0-6.1-0.7-8-2.1c-2-1.4-2.9-3.3-2.9-5.8c0-1.6,0.7-3.9,2.2-6.9c0.6-1.2,1-2.1,1.2-2.7c-2.5,1.6-5.2,3.5-7.9,5.8
				s-4.5,3.5-5.3,3.5c-0.2,0-0.4-0.1-0.5-0.2c-0.2-0.1-0.2-0.3-0.2-0.4c0-0.6,0.6-1.4,1.7-2.6c1.1-1.2,2.9-2.7,5.4-4.7
				c4-3.2,6.8-5.2,8.4-6.1c1.6-0.9,3.1-1.3,4.4-1.3c1.7,0,3.1,0.6,4.1,1.8c1.1,1.2,1.6,2.7,1.6,4.5c0,2.7-1.2,5.3-3.6,7.9
				c-2.4,2.6-3.6,4-3.6,4.4c0,0.6,0.3,1.1,0.9,1.4c0.6,0.3,1.4,0.5,2.5,0.5c1,0,2-0.1,3.1-0.2s2.3-0.3,3.4-0.6
				c1.4-1.9,3.1-4.6,5.2-8c5.1-8.2,9.1-12.3,12-12.3c1,0,1.7,0.4,2.3,1.1s0.8,1.7,0.8,2.9c0,2.3-3.5,6.4-10.4,12.2
				c-6.9,5.8-12.7,12.3-17.4,19.4c2.3,1.1,4.1,2.1,5.4,3.1c1.3,1,2.4,2.2,3.3,3.6c8.2-6.3,17.2-13.9,27-22.9s15.7-13.4,17.6-13.4
				c0.2,0,0.5,0.1,1.1,0.1c0.3,0.1,0.5,0.2,0.7,0.2c-2.6,1.3-8.7,6.4-18.3,15.4s-18.4,16.8-26.5,23.2c0.5,0.8,0.8,1.6,1,2.5
				s0.3,2,0.3,3.2c0,3.9-1.1,8-3.2,12.6c-2.2,4.5-5.2,8.9-9.1,13.2c-4.8,5.2-10.2,9.4-16.3,12.6s-11.6,4.8-16.3,4.8
				c-3.2,0-5.9-0.9-7.9-2.6c-2.1-1.7-3.1-3.9-3.1-6.4c0-5.6,4-11.7,12-18.2S693.5,318.6,708.5,312.1z M707,315.6
				c-12.6,6-22.5,12.2-29.6,18.5c-7.2,6.3-10.8,12-10.8,16.9c0,1.5,0.5,2.6,1.4,3.5s2.1,1.4,3.6,1.4c3.6,0,8.4-3.4,14.5-10.3
				C692.1,338.7,699,328.7,707,315.6z"/>
			<path class="st1" d="M788.2,273.7l3.7-7.4l15-1.1l-15.8,32.5c-1.3,2.6-2.4,4.8-3.2,6.6s-1.2,2.9-1.2,3.2c0,0.6,0.2,1.1,0.5,1.5
				s0.7,0.6,1.2,0.6c1.5,0,6.7-4.5,15.9-13.6c2.3-2.3,4.1-4,5.3-5.3c6.9-6.8,12.2-11.7,15.9-14.7s6.2-4.4,7.7-4.4
				c0.1,0,0.5,0.1,1.1,0.2c0.3,0.1,0.4,0.1,0.5,0.1c-3.6,1.9-9.9,7.4-18.9,16.5c-2.6,2.6-4.6,4.5-6,5.9c-1.1,1.1-2.6,2.7-4.5,4.7
				c-9.7,9.8-17.1,14.7-22.4,14.7c-2.8,0-5-0.8-6.7-2.4s-2.6-3.8-2.6-6.4c0-1.6,0.2-3.1,0.5-4.5s0.8-2.8,1.5-4.3
				c-4,5.8-8,10.1-12,13.1s-8,4.4-11.8,4.4c-4,0-7.3-1.3-9.8-3.8s-3.8-5.8-3.8-9.9c0-4.5,1.1-8.7,3.3-12.6s5.6-7.6,10.2-11.2
				c4.6-3.6,9-6.3,13.1-8.1c4.1-1.8,7.9-2.7,11.3-2.7c3.3,0,6,0.7,7.9,2.1C786.4,268.8,787.7,270.9,788.2,273.7z M785.6,274.8
				c0-1.8-0.6-3.3-1.7-4.4c-1.1-1.2-2.6-1.7-4.3-1.7c-1.9,0-4.3,1.4-7.1,4.1s-6.3,6.9-10.4,12.6c-4.3,5.9-7.4,10.6-9.3,14.3
				c-2,3.7-2.9,6.6-2.9,8.8c0,1.1,0.2,1.8,0.7,2.3s1.3,0.8,2.4,0.8c2.3,0,5-1.2,8.2-3.5s6.6-5.5,10.1-9.6c4.5-5.2,8-10,10.6-14.2
				C784.3,279.8,785.6,276.7,785.6,274.8z"/>
		</g>
	</g>
</g>
<g>
	
		<image style="overflow:visible;opacity:0.75;enable-background:new    ;" width="298" height="298" xlink:href="CA20EE25.png"  transform="matrix(0.9966 0 0 0.9966 -1.95 123.4629)">
	</image>
	<g>
		<circle class="st2" cx="139.3" cy="265.3" r="125.4"/>
	</g>
</g>
<g class="st0">
	
		<image style="overflow:visible;opacity:0.75;enable-background:new    ;" width="194" height="154" xlink:href="CA20EE23.png"  transform="matrix(0.9943 0 0 0.9943 46.1002 188.3996)">
	</image>
	<g>
		<g>
			<path class="st1" d="M190.9,204.9c-3.5-1.6-7.6-2.8-12.2-3.6c-4.6-0.8-9.7-1.2-15.3-1.2c-9.9,0-20.3,1.6-31.3,4.8
				s-20.9,7.5-29.5,12.9c-7.1,4.5-12.9,9.5-17.2,15.2c-4.4,5.6-6.6,10.7-6.6,15.1c0,3.7,1.2,6.7,3.6,9c2.4,2.3,5.7,3.4,9.9,3.4
				c6.5,0,13.7-2.7,21.6-8.2c7.8-5.4,13.7-11.9,17.7-19.5c1.6-3.1,2.7-6.3,3.4-9.8c0.7-3.4,1.4-5.1,2-5.1c0.8,0,1.4,0.5,1.7,1.5
				s0.5,3.1,0.5,6.3c0,11.5-3.9,21.2-11.7,29.2c-7.8,8-17.1,12-27.9,12c-7.1,0-12.9-1.8-17.3-5.4c-4.4-3.6-6.7-8.3-6.7-13.9
				c0-5.2,2.2-10.7,6.6-16.4s10.5-11,18.4-15.9c9.1-5.6,19.3-10,30.6-13.1s22.6-4.7,33.8-4.7c5.7,0,10.9,0.5,15.8,1.5
				c4.9,1,9.7,2.5,14.4,4.6c3.5-0.9,6.3-1.6,8.6-2.1s3.7-0.8,4.3-0.8c0.7,0,1.2,0.1,1.6,0.3c0.3,0.2,0.5,0.5,0.5,0.8
				c0,0.9-1.6,1.7-4.7,2.4c-2.2,0.4-4,0.8-5.5,1.1c5.2,2.3,9.3,5.3,12.1,9c2.9,3.7,4.3,7.8,4.3,12.2c0,6.9-3.2,13.1-9.7,18.6
				s-15.7,9.7-27.6,12.7c6.9,2,12.1,5.1,15.5,9.1c3.4,4.1,5.1,9.2,5.1,15.4c0,9.1-4.5,17.5-13.4,25.4s-18.5,11.8-28.8,11.8
				c-5.2,0-9.2-1.1-12-3.2s-4.2-5.2-4.2-9.2c0-4.7,2.3-9.4,7-14.1c4.7-4.8,8.2-7.1,10.7-7.1c0.4,0,0.8,0.1,1.2,0.4
				c0.3,0.3,0.5,0.6,0.5,0.9c0,0.5-1.1,1.5-3.4,3c-8.1,5.4-12.1,11-12.1,16.7c0,2.5,0.7,4.5,2.1,6c1.4,1.5,3.2,2.3,5.5,2.3
				c2.9,0,5.9-1.2,8.9-3.6s6.2-6,9.5-10.9c3.6-5.4,6.4-10.6,8.2-15.5s2.7-9.6,2.7-14c0-3.3-0.7-6.1-2.1-8.4c-1.4-2.3-3.1-3.4-5-3.4
				c-0.6,0-1.7,0.1-3.3,0.4s-3.1,0.4-4.2,0.4c-1.3,0-2.3-0.3-3.1-0.8c-0.8-0.6-1.2-1.3-1.2-2.1s0.3-1.4,0.9-1.8
				c0.6-0.5,1.5-0.7,2.5-0.7c0.3,0,1.4,0.2,3.4,0.5s3.9,0.5,5.7,0.5c4.9,0,10.1-4,15.6-11.9c5.5-8,8.2-16.3,8.2-24.9
				c0-2.6-0.5-5.1-1.4-7.2c-0.9-2.2-2.2-4-3.9-5.5c-11.5,4-21.7,17.5-30.7,40.4c-2.6,6.9-4.8,12.1-6.4,15.7
				c-8.4,19.1-18.5,33.1-30.1,42s-25.6,13.4-42.1,13.4c-9.3,0-16.8-2-22.4-6s-8.4-9.3-8.4-15.9c0-4.8,1.6-8.8,4.8-12.2
				c3.2-3.3,7.1-5,11.8-5c3.3,0,6.1,0.9,8.2,2.7c2.1,1.8,3.2,4.1,3.2,6.8c0,2.5-0.7,4.7-2.1,6.4c-1.4,1.8-3.1,2.7-5,2.8
				c-0.1,0-0.2,0-0.5,0c-7.9,0.6-11.8,2.7-11.8,6.1c0,3,2,5.6,6,7.8c4,2.2,9,3.3,14.8,3.3c5.3,0,10.2-1.1,14.5-3.4s8.5-6,12.6-11
				c4.2-5.2,9.5-13.7,16-25.4c6.5-11.7,11.1-19.8,13.8-24.2c7.7-12.3,16-22.4,24.8-30.5C174.1,212.3,182.7,207.1,190.9,204.9z"/>
		</g>
	</g>
</g>
<g class="st0">
	
		<image style="overflow:visible;opacity:0.75;enable-background:new    ;" width="309" height="84" xlink:href="CA20EE2C.png"  transform="matrix(0.9962 0 0 0.9962 290.1418 347.1238)">
	</image>
	<g>
		<g>
			<path class="st1" d="M350.4,355.9l-21.7,39c-1.4,2.5-2.5,4.7-3.3,6.5s-1.2,3-1.2,3.6c0,0.2,0.1,0.3,0.3,0.4
				c0.2,0.1,0.5,0.1,0.9,0.1c1,0,2.3-0.5,3.8-1.5s3.4-2.7,5.8-5.1l3.1-3c8.5-8.5,13.5-12.7,14.9-12.7c0.1,0,0.2,0,0.3,0
				c0.1,0,0.3,0.1,0.6,0.1c-2.3,1.3-6,4.6-11.1,9.8c-1.1,1.2-2,2-2.6,2.6l-1.1,1.1c-6.7,6.9-11.7,10.3-15,10.3
				c-1.8,0-3.2-0.4-4.2-1.3s-1.5-2.1-1.5-3.7c0-0.9,0.1-1.8,0.3-2.5c0.2-0.8,0.5-1.6,0.9-2.4c-2.8,3.5-5.2,6-7.3,7.6
				c-2.1,1.5-4.2,2.3-6.2,2.3c-2.2,0-4-0.7-5.4-2.1s-2.1-3.3-2.1-5.6c0-2.5,0.6-4.9,1.9-7.1c1.2-2.2,3.2-4.3,5.8-6.3
				c2.6-2,5.1-3.5,7.4-4.6c2.3-1,4.4-1.5,6.4-1.5c1.9,0,3.4,0.4,4.5,1.2c1.1,0.8,1.8,2,2.1,3.6l15.4-28L350.4,355.9z M324.9,385.4
				c0-1-0.3-1.9-0.9-2.5c-0.6-0.7-1.4-1-2.4-1c-1.1,0-2.4,0.8-4.1,2.3s-3.6,3.9-5.9,7c-2.4,3.3-4.2,6-5.3,8.1
				c-1.1,2.1-1.7,3.7-1.7,5c0,0.6,0.1,1,0.4,1.3s0.7,0.4,1.3,0.4c1.3,0,2.9-0.6,4.7-1.9c1.8-1.3,3.7-3.1,5.7-5.4
				c2.5-2.9,4.5-5.6,6-8C324.1,388.3,324.9,386.5,324.9,385.4z"/>
			<path class="st1" d="M369.1,384.8l2.1-4.2l8.5-0.6l-8.9,18.3c-0.7,1.5-1.3,2.7-1.8,3.7s-0.7,1.6-0.7,1.8c0,0.3,0.1,0.6,0.3,0.8
				c0.2,0.2,0.4,0.3,0.7,0.3c0.8,0,3.8-2.6,8.9-7.7c1.3-1.3,2.3-2.3,3-3c3.9-3.8,6.9-6.6,8.9-8.3c2.1-1.7,3.5-2.5,4.4-2.5
				c0.1,0,0.3,0,0.6,0.1c0.1,0,0.2,0,0.3,0c-2,1.1-5.6,4.2-10.7,9.3c-1.4,1.4-2.6,2.6-3.4,3.3c-0.6,0.6-1.4,1.5-2.5,2.6
				c-5.5,5.5-9.7,8.3-12.6,8.3c-1.6,0-2.8-0.5-3.8-1.4s-1.4-2.1-1.4-3.6c0-0.9,0.1-1.8,0.3-2.5c0.2-0.8,0.5-1.6,0.9-2.4
				c-2.2,3.3-4.5,5.7-6.8,7.4c-2.3,1.7-4.5,2.5-6.6,2.5c-2.3,0-4.1-0.7-5.5-2.1s-2.1-3.3-2.1-5.6c0-2.5,0.6-4.9,1.9-7.1
				s3.2-4.3,5.8-6.3c2.6-2,5.1-3.5,7.4-4.6c2.3-1,4.4-1.5,6.4-1.5c1.9,0,3.4,0.4,4.5,1.2C368.1,382.1,368.8,383.3,369.1,384.8z
				 M367.6,385.4c0-1-0.3-1.9-1-2.5c-0.6-0.7-1.4-1-2.4-1c-1.1,0-2.4,0.8-4,2.3s-3.6,3.9-5.9,7.1c-2.4,3.3-4.2,6-5.3,8.1
				s-1.7,3.7-1.7,5c0,0.6,0.1,1,0.4,1.3s0.7,0.4,1.3,0.4c1.3,0,2.8-0.6,4.6-1.9c1.8-1.3,3.7-3.1,5.7-5.4c2.5-2.9,4.5-5.6,6-8
				C366.9,388.3,367.6,386.5,367.6,385.4z"/>
			<path class="st1" d="M391.6,386.3c-0.8,0.8-1.9,1.8-3.1,3.1c-2,2-3.2,3.1-3.6,3.1c-0.2,0-0.4-0.1-0.5-0.2s-0.2-0.3-0.2-0.5
				c0-0.3,0.6-1.1,1.9-2.3c0.7-0.7,1.3-1.4,1.8-1.9l2.2-2.2c1-1.1,2-2.1,2.8-3.2c0.8-1,1.6-2,2.2-2.9l13.7-22.4l8.3-0.9l-18.6,34.2
				c-0.8,1.4-1.9,3.4-3.2,5.8c-2.6,4.7-3.9,7.4-3.9,8.2c0,0.3,0.1,0.6,0.4,0.8c0.2,0.2,0.6,0.3,1,0.3c1.2,0,4.8-3,10.8-9
				c1.4-1.4,2.4-2.4,3.2-3.2c3.6-3.5,6.3-6,8.1-7.5c1.9-1.5,3.2-2.2,3.9-2.2c0.1,0,0.3,0,0.7,0.1c0.1,0,0.2,0,0.3,0
				c-2.5,1.4-5.9,4.4-10.4,9.1c-0.6,0.6-1,1.1-1.3,1.4c-0.5,0.6-1.3,1.4-2.3,2.4c-7,7.3-11.9,10.9-14.8,10.9c-1.8,0-3.1-0.5-4.2-1.6
				c-1-1.1-1.5-2.5-1.5-4.3c0-1.5,0.5-3.4,1.5-5.9C387.9,393.1,389.5,390,391.6,386.3z"/>
			<path class="st1" d="M431.1,399.5c1-0.5,2-0.8,2.9-1s1.9-0.3,2.9-0.3c2.5,0,5.3,0.7,8.2,2c2.9,1.3,4.7,2,5.3,2
				c1.2,0,2.4-0.8,3.8-2.3c1.3-1.6,2.2-2.3,2.5-2.3c0.1,0,0.2,0,0.3,0.1c0.1,0.1,0.1,0.1,0.1,0.3c0,1.3-1.5,3.3-4.6,5.8
				s-6.1,3.8-9.1,3.8c-2,0-4.3-0.8-7-2.4s-4.5-2.4-5.6-2.4c-1.4,0-2.6,0.8-3.7,2.3s-1.8,2.3-2,2.3s-0.4,0-0.5-0.1s-0.2-0.2-0.2-0.4
				c0-0.3,0.2-0.9,0.5-1.8c0.4-0.9,0.8-1.8,1.3-2.6c1.3-2.2,4.4-4.8,9.2-8c1-0.7,1.7-1.1,2.2-1.5c5.8-3.9,9.9-7.3,12.3-10.3
				s3.6-6.1,3.6-9.2c0-1.3-0.4-2.3-1.1-3s-1.8-1.1-3.1-1.1c-1.3,0-2.7,0.3-4.3,1s-3.1,1.5-4.6,2.7c-1.8,1.4-3.3,2.9-4.4,4.6
				c-1.2,1.7-1.8,3.1-1.8,4.2c0,0.8,0.2,1.4,0.5,1.8s0.8,0.6,1.4,0.6c1.9,0,3.7-1.2,5.6-3.6c1.8-2.4,2.8-3.6,3-3.6s0.3,0.1,0.4,0.3
				c0.1,0.2,0.2,0.4,0.2,0.6c0,0.9-1.1,2.4-3.2,4.6s-4.1,3.3-6.1,3.3c-1.2,0-2.1-0.3-2.7-0.9s-0.9-1.5-0.9-2.7
				c0-3.2,1.9-6.4,5.7-9.6s8-4.8,12.7-4.8c3.4,0,6.2,0.9,8.4,2.6c2.1,1.8,3.2,4,3.2,6.9c0,2.5-0.9,4.8-2.8,6.9s-4.6,3.9-8.2,5.5
				c-1.2,0.5-2.9,1.2-5.1,2.2C439,394.5,434,397.2,431.1,399.5z"/>
			<path class="st1" d="M463.8,395.3c0-3.5,1.1-7,3.3-10.5s5.4-7,9.7-10.4c2.8-2.2,5.4-3.9,8-5.1s4.9-1.8,7.1-1.8
				c2.5,0,4.6,0.8,6.1,2.5s2.2,3.9,2.2,6.7c0,3.2-1,6.6-3,10.4c-2,3.7-5,7.6-8.8,11.6c-3,3-5.6,5.2-8,6.6s-4.7,2.1-7,2.1
				c-2.6,0-4.8-1.2-6.7-3.6C464.8,401.5,463.8,398.6,463.8,395.3z M492.1,369.4c-1.7,0-3.4,0.8-5.3,2.3s-3.7,3.7-5.3,6.4
				c-3.4,5.7-6.2,10.6-8.2,14.9s-3,7.2-3,8.7c0,1.3,0.3,2.2,1,2.9s1.6,1,2.9,1c1.7,0,3.5-0.7,5.4-2.1s4-3.5,6.1-6.2
				c3.2-4.1,5.8-8.3,7.8-12.7c2-4.3,3-7.7,3-10.1c0-1.8-0.4-3.1-1.1-3.9C494.6,369.8,493.5,369.4,492.1,369.4z"/>
			<path class="st1" d="M500.4,395.3c0-3.5,1.1-7,3.3-10.5s5.4-7,9.7-10.4c2.8-2.2,5.4-3.9,8-5.1s4.9-1.8,7.1-1.8
				c2.5,0,4.6,0.8,6.1,2.5s2.2,3.9,2.2,6.7c0,3.2-1,6.6-3,10.4c-2,3.7-5,7.6-8.8,11.6c-3,3-5.6,5.2-8,6.6s-4.7,2.1-7,2.1
				c-2.6,0-4.8-1.2-6.7-3.6C501.3,401.5,500.4,398.6,500.4,395.3z M528.6,369.4c-1.7,0-3.4,0.8-5.3,2.3s-3.7,3.7-5.3,6.4
				c-3.4,5.7-6.2,10.6-8.2,14.9s-3,7.2-3,8.7c0,1.3,0.3,2.2,1,2.9s1.6,1,2.9,1c1.7,0,3.5-0.7,5.4-2.1s4-3.5,6.1-6.2
				c3.2-4.1,5.8-8.3,7.8-12.7c2-4.3,3-7.7,3-10.1c0-1.8-0.4-3.1-1.1-3.9C531.2,369.8,530.1,369.4,528.6,369.4z"/>
			<path class="st1" d="M549.8,388.1c1.5-1.2,3-2,4.6-2.6s3.3-0.9,5-0.9c2.6,0,4.7,0.7,6.1,2.1c1.5,1.4,2.2,3.3,2.2,5.7
				c0,4.1-1.9,7.6-5.7,10.6s-8.2,4.4-13.2,4.4c-3.4,0-6.2-1-8.3-3.1c-2.1-2-3.1-4.8-3.1-8.2c0-3.1,0.7-6.1,2.2-9.2
				c1.5-3,3.7-6,6.7-9c3.4-3.4,6.9-6,10.3-7.8c3.4-1.8,6.8-2.6,10.2-2.6c2.7,0,4.8,0.6,6.5,1.9c1.6,1.3,2.5,2.9,2.5,4.9
				c0,1.3-0.4,2.5-1.3,3.4s-2,1.4-3.2,1.4c-1.1,0-2-0.3-2.7-1s-1.1-1.5-1.1-2.5c0-1.1,0.5-2,1.6-2.9s1.6-1.5,1.6-1.9
				c0-0.5-0.3-0.9-0.8-1.3c-0.6-0.3-1.3-0.5-2.1-0.5c-3.4,0-6.6,1.6-9.6,4.7S552.4,381.7,549.8,388.1z M557.3,386.6
				c-1.3,0-2.8,0.6-4.6,1.7c-1.7,1.1-3.2,2.6-4.5,4.3c-1.3,1.8-2.2,3.5-2.9,5.2s-1,3.2-1,4.5c0,1,0.4,1.9,1.1,2.5
				c0.7,0.7,1.6,1,2.8,1c1.1,0,2.3-0.3,3.5-1s2.5-1.7,3.7-2.9c1.5-1.6,2.8-3.6,3.8-5.8c1-2.2,1.5-4.1,1.5-5.6c0-1.3-0.3-2.3-0.8-2.9
				C559.3,386.9,558.5,386.6,557.3,386.6z"/>
		</g>
	</g>
</g>
</svg>
