<?xml version="1.0" encoding="utf-8"?>
<!-- Generator: Adobe Illustrator 23.0.0, SVG Export Plug-In . SVG Version: 6.00 Build 0)  -->
<svg version="1.1" id="Capa_1" xmlns="http://www.w3.org/2000/svg" xmlns:xlink="http://www.w3.org/1999/xlink" x="0px" y="0px"
	 viewBox="0 0 512 512" style="enable-background:new 0 0 512 512;" xml:space="preserve">
<style type="text/css">
	.st0{fill:#37474F;}
	.st1{fill:#FFEB3B;}
	.st2{fill:#F44336;}
	.st3{fill:#4CAF50;}
	.st4{font-family:'FrutigerRoman';}
	.st5{font-size:88px;}
	.st6{fill:none;}
	.st7{font-size:9.3139px;}
	.st8{fill:none;stroke:#4CAF50;stroke-miterlimit:10;}
</style>
<path class="st0" d="M461.88,92.27h-72.1c-76.45-66.48-188.43-66.48-264.88,0h-72.1c0,0,16.36,19.94,23.01,38.61
	c-14.32,17.39-23.01,39.37-23.01,63.66c0,56.5,45.77,102.27,102.27,102.27c33.49,0,63.15-16.36,81.82-41.42l21.48,41.42l19.69-41.16
	c18.66,24.8,48.07,41.16,81.56,41.16c56.5,0,102.27-45.77,102.27-102.27c0-24.29-8.69-46.28-23.01-63.66
	C445.52,112.21,461.88,92.27,461.88,92.27z M155.07,271.24c-42.19,0-76.7-34.52-76.7-76.7s34.52-76.7,76.7-76.7
	s76.7,34.52,76.7,76.7S197.25,271.24,155.07,271.24z M257.34,194.54c0-52.41-39.89-95.37-91.02-101.25
	c55.99-33.75,126.05-33.75,182.04,0C297.22,99.17,257.34,142.13,257.34,194.54z M359.61,271.24c-42.19,0-76.7-34.52-76.7-76.7
	s34.52-76.7,76.7-76.7s76.7,34.52,76.7,76.7S401.8,271.24,359.61,271.24z"/>
<path class="st1" d="M348.36,93.29c-51.14,5.88-91.02,48.83-91.02,101.25c0-52.41-39.89-95.37-91.02-101.25
	C222.31,59.54,292.37,59.54,348.36,93.29z"/>
<g>
	<path class="st0" d="M155.07,245.68c-28.2,0-51.14-22.93-51.14-51.14s22.93-51.14,51.14-51.14s51.14,22.93,51.14,51.14
		C206.2,222.74,183.27,245.68,155.07,245.68z M155.07,168.97c-14.09,0-25.57,11.48-25.57,25.57c0,14.09,11.48,25.57,25.57,25.57
		c14.09,0,25.57-11.48,25.57-25.57C180.63,180.45,169.15,168.97,155.07,168.97z"/>
	<path class="st0" d="M359.61,245.68c-28.2,0-51.14-22.93-51.14-51.14s22.93-51.14,51.14-51.14s51.14,22.93,51.14,51.14
		C410.74,222.74,387.81,245.68,359.61,245.68z M359.61,168.97c-14.11,0-25.57,11.48-25.57,25.57c0,14.09,11.45,25.57,25.57,25.57
		c14.11,0,25.57-11.48,25.57-25.57C385.18,180.45,373.72,168.97,359.61,168.97z"/>
</g>
<circle class="st2" cx="155.07" cy="194.54" r="12.78"/>
<circle class="st3" cx="359.61" cy="194.54" r="12.78"/>
<text transform="matrix(1 0 0 1 184.3375 383.4625)" class="st3 st4 st5">advisor</text>
<rect x="35.11" y="315.87" class="st6" width="476" height="113"/>
<text transform="matrix(1 0 0 1 35.1128 381.8711)" class="st4 st5">trip</text>
<g>
	<g>
		<rect x="483.01" y="342.26" class="st6" width="45.02" height="44.98"/>
		<text transform="matrix(1 0 0 1 483.0063 349.248)" class="st3 st4 st7">R</text>
	</g>
	<circle class="st8" cx="485.96" cy="345.85" r="5.84"/>
</g>
</svg>
